<svg preserveAspectRatio="none" width="100%" height="100%" overflow="visible" style="display: block;" viewBox="0 0 4.38835 3.69632" fill="none" xmlns="http://www.w3.org/2000/svg">
<g id="Group">
<path id="Vector" fill-rule="evenodd" clip-rule="evenodd" d="M3.84427 0.396024L0.412072 0.396024L0.412072 2.16223L0.800012 1.77419L0.857991 1.71621H1.8481L1.85618 1.70812L2.78024 0.784071H3.0603L3.84427 1.56815V0.396024ZM2.12839 1.99605L2.53216 2.39994L2.67225 2.53992L2.39218 2.81998L2.2522 2.67989L1.68443 2.11223H1.0221L0.420042 2.71429L0.412072 2.72226V3.03628C0.412072 3.1063 0.439885 3.17345 0.489397 3.22297C0.538909 3.27248 0.606062 3.3003 0.676083 3.3003H3.58025C3.65027 3.3003 3.71742 3.27248 3.76694 3.22297C3.81645 3.17345 3.84427 3.1063 3.84427 3.03628V2.12817L2.92021 1.20412L2.13614 1.98819L2.12839 1.99605ZM0.0159409 2.59025L0.0159409 3.03628C0.0159409 3.12297 0.0330127 3.2088 0.0661895 3.28889C0.0993663 3.36897 0.147996 3.44175 0.209298 3.50304C0.2706 3.56433 0.343375 3.61294 0.423467 3.64611C0.503559 3.67927 0.589397 3.69634 0.676083 3.69632H3.58025C3.66693 3.69634 3.75277 3.67927 3.83285 3.64611C3.91294 3.61294 3.98571 3.56432 4.047 3.50303C4.10829 3.44174 4.15691 3.36897 4.19008 3.28888C4.22324 3.2088 4.2403 3.12296 4.24029 3.03628V2.26018L4.38835 2.11223L4.24837 1.97214L4.24029 1.96417V0L0.0159409 0L0.0159409 2.55826L0 2.5742L0.0159409 2.59025Z" fill="var(--fill-0, #666666)"/>
</g>
</svg>
