<svg preserveAspectRatio="none" width="100%" height="100%" overflow="visible" style="display: block;" viewBox="0 0 14.0749 11.8553" fill="none" xmlns="http://www.w3.org/2000/svg">
<g id="Group">
<path id="Vector" fill-rule="evenodd" clip-rule="evenodd" d="M12.3299 1.27019H1.32174V6.93499L2.56599 5.6904L2.75195 5.50444H5.92755L5.95347 5.47852L8.9172 2.51478H9.81544L12.3299 5.02957V1.27019ZM6.82651 6.402L8.12154 7.69737L8.57085 8.14634L7.67259 9.0446L7.22362 8.59529L5.40261 6.7746H3.27829L1.34731 8.7056L1.32174 8.73117V9.73833C1.32174 9.96291 1.41095 10.1783 1.56975 10.3371C1.72855 10.4959 1.94393 10.5851 2.16851 10.5851H11.4831C11.7077 10.5851 11.9231 10.4959 12.0819 10.3371C12.2407 10.1783 12.3299 9.96291 12.3299 9.73833V6.82572L9.36615 3.86201L6.85137 6.37678L6.82651 6.402ZM0.0512287 8.30778V9.73833C0.0512287 10.0164 0.105983 10.2917 0.212392 10.5485C0.3188 10.8054 0.474772 11.0388 0.671386 11.2354C0.868 11.432 1.10141 11.5879 1.3583 11.6942C1.61518 11.8006 1.89048 11.8553 2.16851 11.8553H11.4831C11.7611 11.8553 12.0364 11.8006 12.2933 11.6942C12.5501 11.5879 12.7835 11.4319 12.9801 11.2354C13.1767 11.0388 13.3326 10.8054 13.439 10.5485C13.5454 10.2916 13.6001 10.0163 13.6 9.73833V7.24913L14.0749 6.7746L13.626 6.32531L13.6 6.29974V1.99371e-05H0.0512287V8.20516L0.000101096 8.25629L0.0512287 8.30778Z" fill="var(--fill-0, #666666)"/>
</g>
</svg>
