<svg preserveAspectRatio="none" width="100%" height="100%" overflow="visible" style="display: block;" viewBox="0 0 167.049 52" fill="none" xmlns="http://www.w3.org/2000/svg">
<g id="Logo Background">
<g id="Logo Icon">
<path id="Vector" d="M141.717 30.2654C141.18 31.3018 140.47 32.1023 139.586 32.6669C138.702 33.2334 137.743 33.5157 136.707 33.5157C134.981 33.5157 133.579 32.8768 132.504 31.5934C131.429 30.3118 130.891 28.6365 130.891 26.5637C130.891 24.4909 131.429 22.8249 132.504 21.5619C133.579 20.2989 134.998 19.6693 136.766 19.6693C137.763 19.6693 138.704 19.933 139.588 20.4605C140.472 20.988 141.182 21.7718 141.719 22.8044C142.257 23.8408 142.525 25.0945 142.525 26.5637C142.525 28.0329 142.257 29.229 141.719 30.2654H141.717ZM143.33 12.433L142.811 15.9936C142.274 15.2395 141.592 14.5708 140.767 13.9876C139.942 13.4026 138.99 12.9327 137.915 12.5742C136.84 12.2176 135.67 12.0374 134.4 12.0374C131.981 12.0374 129.822 12.6299 127.922 13.8186C126.022 15.0055 124.524 16.6826 123.429 18.8483C122.335 21.0158 121.788 23.5882 121.788 26.5637C121.788 29.5392 122.335 32.1116 123.429 34.2791C124.523 36.4466 126.02 38.1219 127.922 39.3106C129.822 40.4975 131.981 41.0918 134.4 41.0918C136.626 41.0918 138.526 40.6108 140.101 39.6505C141.023 39.0896 141.816 38.4618 142.489 37.7765C142.302 40.0369 141.18 41.792 139.124 43.042C136.859 44.4183 133.556 45.1223 129.218 45.1613L130.484 52C134.822 52 138.519 51.3889 141.57 50.1631C144.621 48.9391 146.943 47.1691 148.538 44.8511C150.132 42.5331 150.927 39.7917 150.927 36.6268V12.433H143.324H143.33ZM62.5916 12.433H70.1943L70.8283 15.5422C71.7501 14.4873 72.8629 13.6403 74.1688 12.9995C75.4748 12.3606 76.8942 12.0393 78.4311 12.0393C80.6568 12.0393 82.557 12.5111 84.1317 13.4527C85.7064 14.3963 86.9063 15.7688 87.7315 17.5779C88.5567 19.3869 88.9693 21.5897 88.9693 24.19V40.6925H80.5035V25.2636C80.5035 23.3412 80.1098 21.8999 79.3225 20.9397C78.5352 19.9794 77.375 19.4984 75.8382 19.4984C74.3013 19.4984 73.0635 19.9887 72.2384 20.9675C71.4132 21.9482 71.0006 23.3802 71.0006 25.2617V40.6906H62.5916V12.433ZM48.9683 12.433H57.4341V40.6925H48.9683V12.433ZM53.2287 9.60803C51.654 9.60803 50.3764 9.13626 49.3979 8.19459C48.4194 7.25292 47.9293 6.1218 47.9293 4.80309C47.9293 3.48437 48.4194 2.30682 49.3979 1.38372C50.3764 0.460621 51.654 0 53.2287 0C54.8033 0 56.0317 0.462478 57.031 1.38372C58.0284 2.30868 58.5281 3.44537 58.5281 4.80309C58.5281 6.1608 58.0284 7.25292 57.031 8.19459C56.0317 9.13626 54.7655 9.60803 53.2287 9.60803ZM33.1307 0H41.5397V40.6925H33.1307V0ZM18.4589 31.5934C17.4028 32.875 16.0118 33.5157 14.2819 33.5157C13.1671 33.5157 12.1602 33.2427 11.2593 32.6966C10.3565 32.1506 9.65437 31.3612 9.1566 30.323C8.65694 29.2866 8.40901 28.0329 8.40901 26.5637C8.40901 25.0945 8.65884 23.8037 9.1566 22.8063C9.65626 21.8071 10.3565 21.0363 11.2593 20.4883C12.1602 19.9423 13.169 19.6693 14.2819 19.6693C16.0099 19.6693 17.4009 20.3007 18.4589 21.5619C19.515 22.8249 20.0431 24.4928 20.0431 26.5637C20.0431 28.6346 19.515 30.3137 18.4589 31.5952V31.5934ZM27.4433 18.8483C26.3494 16.6826 24.8599 15.0055 22.9805 13.8186C21.0992 12.6318 18.9472 12.0374 16.5284 12.0374C14.6472 12.0374 12.957 12.4238 11.4599 13.1964C9.96287 13.9691 8.84999 14.9015 8.11943 15.9954L7.60085 12.4349H0V51.9963H8.40901V37.8081C9.08279 38.4841 9.89662 39.1082 10.8562 39.6747C12.4498 40.6164 14.3405 41.0881 16.5284 41.0881C18.9472 41.0881 21.1067 40.4956 23.007 39.3069C24.9072 38.1201 26.3948 36.4429 27.4717 34.2754C28.5467 32.1079 29.0842 29.5373 29.0842 26.56C29.0842 23.5827 28.5373 21.0121 27.4433 18.8446V18.8483ZM92.3779 12.433H99.9807L100.615 15.5422C101.536 14.4873 102.649 13.6403 103.955 12.9995C105.261 12.3606 106.681 12.0393 108.217 12.0393C110.443 12.0393 112.343 12.5111 113.918 13.4527C115.493 14.3963 116.693 15.7688 117.518 17.5779C118.343 19.3869 118.756 21.5897 118.756 24.19V40.6925H110.29V25.2636C110.29 23.3412 109.896 21.8999 109.109 20.9397C108.322 19.9794 107.161 19.4984 105.625 19.4984C104.088 19.4984 102.85 19.9887 102.025 20.9675C101.2 21.9482 100.787 23.3802 100.787 25.2617V40.6906H92.3779V12.433Z" fill="var(--fill-0, black)"/>
</g>
<circle id="Ellipse 4100" cx="161.154" cy="37.6328" r="5.8945" fill="var(--fill-0, #BEFF50)"/>
</g>
</svg>
