<svg preserveAspectRatio="none" width="100%" height="100%" overflow="visible" style="display: block;" viewBox="0 0 16 15.9414" fill="none" xmlns="http://www.w3.org/2000/svg">
<path id="path" d="M16 7.9414C16 12.3597 12.4183 15.9414 7.99999 15.9414C3.58173 15.9414 0 12.3597 0 7.9414C0 4.18956 2.58288 1.0415 6.06739 0.176992V5.49673H4.41772V7.9414H6.06739V8.99481C6.06739 11.7178 7.29964 12.9798 9.97292 12.9798C10.4797 12.9798 11.3543 12.8805 11.712 12.7811V10.565C11.5232 10.5848 11.1953 10.5948 10.7878 10.5948C9.47603 10.5948 8.96918 10.0979 8.96918 8.80598V7.9414H11.5823L11.1334 5.49673H8.96918V0C12.9303 0.478432 16 3.85123 16 7.9414Z" fill="var(--fill-0, #0866FF)"/>
</svg>
